<svg version="1.1" id="Layer_1" xmlns="http://www.w3.org/2000/svg" xmlns:xlink="http://www.w3.org/1999/xlink" x="0px" y="0px"
	 width="100%" viewBox="0 0 1024 1024" enable-background="new 0 0 1024 1024" xml:space="preserve">
<path fill="#fffef7" opacity="1.000000" stroke="none" 
	d="
M834.136047,692.901611 
	C830.905762,693.163269 828.080811,693.377625 825.255737,693.378540 
	C749.263245,693.402832 673.270630,693.441223 597.278320,693.320923 
	C592.754395,693.313721 590.216248,694.719788 587.679810,698.592163 
	C571.739746,722.928345 549.150818,736.187256 519.906860,735.914490 
	C494.178986,735.674500 473.038025,724.522522 457.878998,703.840637 
	C451.827057,695.583862 445.392151,693.143188 435.516785,693.196655 
	C362.192932,693.594360 288.865875,693.402039 215.539795,693.372681 
	C202.574768,693.367554 199.368652,689.421875 201.242615,676.675415 
	C207.820709,631.932434 215.338989,587.339661 222.399094,542.674438 
	C228.160370,506.226257 233.969864,469.783600 239.609497,433.315582 
	C240.596207,426.935242 243.648026,423.166504 249.863113,421.353180 
	C259.127197,418.650391 268.249237,415.464142 277.465729,412.592743 
	C280.114990,411.767426 281.501190,410.519501 281.896423,407.475464 
	C283.607819,394.294098 285.686096,381.160797 287.562256,368.000214 
	C288.650146,360.369019 292.672394,356.376587 300.249542,355.728668 
	C303.895935,355.416870 307.586945,354.796967 311.195923,355.086792 
	C315.735046,355.451294 317.029480,353.154022 317.436310,349.356781 
	C318.162262,342.580627 318.942657,335.809784 319.766876,329.044891 
	C320.451080,323.429199 323.062988,320.802032 328.473236,320.711914 
	C356.815247,320.239868 385.183594,320.471436 412.961212,326.802979 
	C446.422394,334.429962 477.246002,347.666748 501.998932,372.471497 
	C509.070190,379.557556 514.985779,387.581879 520.066895,395.917389 
	C521.951416,395.837402 522.448242,394.682526 523.044556,393.731934 
	C541.729126,363.946106 569.457886,346.173706 601.755920,334.490387 
	C623.212952,326.728638 645.464478,323.242218 668.151917,321.526093 
	C682.479065,320.442352 696.776550,320.907684 711.086609,320.701965 
	C718.265442,320.598755 720.461365,322.745575 721.420532,329.920074 
	C722.368103,337.007843 723.445190,344.079254 724.306152,351.177185 
	C724.600464,353.603821 725.638550,354.725677 728.082520,354.844391 
	C732.233398,355.045990 736.373474,355.464752 740.523743,355.685333 
	C748.005432,356.082886 752.177307,359.670563 753.321411,367.158051 
	C755.354492,380.463135 757.339050,393.777191 759.133057,407.115906 
	C759.500244,409.845886 760.734924,411.068939 763.105408,412.146820 
	C771.951172,416.169006 781.377563,418.387054 790.603149,421.194946 
	C796.526794,422.997864 799.848938,426.403992 800.844727,432.619171 
	C805.208984,459.856995 809.764893,487.064148 814.251648,514.282349 
	C818.441467,539.699402 822.903198,565.075500 826.751648,590.544128 
	C831.369629,621.105835 837.326477,651.470154 840.419861,682.259766 
	C840.915100,687.188416 838.977600,690.643738 834.136047,692.901611 
M336.453583,410.903534 
	C335.386658,423.501190 334.407166,436.107025 333.230682,448.694427 
	C331.760925,464.419434 330.061859,480.122986 328.588470,495.847656 
	C327.409515,508.430511 326.499481,521.038757 325.299469,533.619385 
	C324.918488,537.613098 326.283905,539.181580 330.291138,538.650208 
	C339.582336,537.418091 348.861694,538.031067 358.194977,538.497986 
	C383.572723,539.767517 407.911163,545.403503 431.379608,554.919922 
	C460.410461,566.691956 486.066772,583.187195 505.269196,608.544678 
	C505.701080,609.114990 506.058380,610.072205 507.207397,609.588989 
	C508.755371,578.816406 506.604828,548.029724 507.473267,517.232239 
	C508.219727,490.759521 507.645782,464.249359 507.627991,437.755768 
	C507.626892,436.100159 507.436310,434.438721 507.246552,432.790039 
	C505.210388,415.099884 495.569885,401.478455 483.434753,389.422546 
	C463.849426,369.965179 439.742462,358.855499 413.277954,352.172791 
	C391.471863,346.666382 369.323212,344.885315 346.925323,345.325958 
	C344.752106,345.368713 342.525848,345.139160 342.253876,348.377838 
	C341.711273,354.839172 340.904205,361.277832 340.318176,367.736023 
	C339.040466,381.817627 337.832825,395.905609 336.453583,410.903534 
M663.303040,540.618774 
	C669.380920,539.658264 675.493774,539.100464 681.626343,538.556946 
	C691.954407,537.641602 702.225464,537.874634 712.522522,538.655640 
	C714.955566,538.840210 716.672852,538.513977 716.376526,535.179382 
	C713.991943,508.347900 712.502319,481.412659 709.270447,454.686676 
	C705.055420,419.830078 703.238220,384.787689 699.784912,349.880524 
	C699.444580,346.440186 698.330078,345.324738 694.962524,345.277893 
	C673.248474,344.976013 651.657898,346.447449 630.519531,351.429016 
	C603.015930,357.910492 577.916626,369.429626 557.846130,389.989929 
	C543.376770,404.812439 533.886108,421.371674 534.681702,443.532776 
	C535.834534,475.642670 535.313110,507.832336 534.781372,539.975952 
	C534.445129,560.301270 534.944336,580.602234 535.015259,600.914062 
	C535.023682,603.338501 534.604980,605.835022 535.622375,608.360413 
	C537.991882,607.034729 539.297302,604.867676 540.867859,603.012573 
	C547.790039,594.836304 555.547974,587.512634 564.119568,581.149292 
	C593.450684,559.374512 626.463501,546.419495 663.303040,540.618774 
M322.576385,600.265930 
	C319.423676,600.459778 316.271851,600.670227 313.118073,600.844482 
	C299.285065,601.608887 285.701538,604.005493 272.143311,606.748962 
	C265.057373,608.182800 260.884674,604.437927 260.703796,597.247925 
	C260.653656,595.255127 260.731506,593.239502 260.975494,591.262085 
	C263.152435,573.616821 265.357025,555.974976 267.597351,538.337646 
	C271.555450,507.176361 275.647064,476.031372 279.403503,444.845978 
	C279.932831,440.451385 281.645355,435.928040 280.195099,431.263641 
	C276.075378,432.981995 276.286835,436.742126 275.241608,439.788208 
	C274.261292,442.645050 272.862579,443.200958 270.573181,440.993439 
	C269.780731,440.229370 269.645142,438.814606 267.888214,438.558319 
	C265.557739,444.100800 265.046936,450.081970 264.377045,455.963867 
	C261.967529,477.121155 259.511261,498.265656 255.740204,519.238098 
	C253.178253,533.486328 250.600876,547.736084 248.359161,562.036682 
	C245.087601,582.907104 242.173325,603.833313 238.970184,624.714783 
	C238.044525,630.749146 238.897003,631.790100 244.707306,629.899048 
	C270.318604,621.563721 296.494934,616.831604 323.456146,615.379272 
	C352.904663,613.792969 382.031677,615.147522 410.770752,621.680542 
	C436.152344,627.450317 460.420319,636.333801 483.239777,650.705139 
	C482.656860,649.579285 482.541565,649.086426 482.233398,648.804016 
	C479.655151,646.441528 477.190796,643.921082 474.415436,641.812500 
	C445.774658,620.053162 413.127960,607.977844 377.919891,602.240173 
	C359.895752,599.302856 341.705414,600.198425 322.576385,600.265930 
M654.318359,617.650696 
	C701.888733,611.659973 748.801575,614.469849 794.394531,628.937195 
	C796.161316,626.351868 793.709290,623.885925 795.877380,622.216980 
	C797.840942,622.497314 798.926453,625.702026 801.122253,624.087097 
	C803.126099,622.613403 802.387329,620.277588 802.029907,618.077759 
	C797.842712,592.308289 793.798157,566.515564 789.590942,540.749390 
	C787.585510,528.467407 785.313354,516.229004 782.959534,502.817047 
	C781.603088,505.199066 781.684326,507.777954 779.348755,507.369934 
	C777.107971,506.978455 776.300964,504.998962 775.790527,502.987701 
	C775.262085,500.905670 774.458557,498.839172 775.430603,496.314697 
	C778.176086,496.753510 779.112549,494.881775 779.986145,492.564117 
	C781.044373,489.756714 780.919495,486.950623 780.401428,484.193268 
	C778.983643,476.647186 778.681030,468.968231 777.540283,461.409546 
	C776.421204,453.994263 775.971619,446.322418 772.428711,439.156372 
	C770.629272,440.265076 769.259216,441.109192 767.644409,442.104126 
	C765.447632,438.270050 766.120728,432.785950 760.149231,431.308411 
	C761.561768,441.368256 763.093872,451.179962 764.289368,461.032562 
	C766.472595,479.023956 768.051880,497.097504 770.619812,515.031250 
	C774.342224,541.027405 777.279724,567.112488 780.346802,593.183838 
	C781.693726,604.633118 776.978821,608.787292 765.839661,606.096313 
	C733.667542,598.324158 701.001587,598.473572 668.505676,601.747375 
	C638.787781,604.741272 610.703857,614.325806 584.679138,629.356812 
	C574.896362,635.006897 565.692444,641.390930 558.257080,650.102417 
	C559.717163,649.767639 561.010681,649.160339 562.246643,648.452698 
	C571.064575,643.404114 579.936157,638.482971 589.406555,634.703613 
	C610.069519,626.457642 631.568970,621.410645 654.318359,617.650696 
M485.118896,621.209656 
	C481.719147,617.777527 478.478607,614.168518 474.895050,610.940430 
	C437.029266,576.830750 392.194336,561.001465 341.617920,560.345154 
	C329.766052,560.191345 318.002045,561.117065 306.296967,563.047852 
	C299.871460,564.107727 297.334351,561.734558 297.819183,555.545959 
	C298.104767,551.899902 298.589020,548.269653 298.959381,544.629822 
	C301.854645,516.176025 304.766724,487.723877 307.627441,459.266571 
	C309.639771,439.248718 311.777740,419.239929 313.434387,399.191956 
	C313.947815,392.978607 315.537506,386.737213 314.469299,380.434753 
	C306.939667,380.093445 305.908905,380.870789 305.174591,387.467804 
	C304.438171,394.083496 303.829193,400.713745 303.053833,407.324646 
	C300.515533,428.966919 297.800262,450.589203 295.386261,472.245178 
	C291.422546,507.804108 287.723969,543.392761 283.682831,578.942688 
	C283.160431,583.538269 284.714935,584.376282 288.519104,583.376648 
	C302.124390,579.801514 316.097687,578.623169 330.024017,577.937683 
	C371.108795,575.915283 410.648712,582.486206 447.909027,600.666565 
	C461.939972,607.512634 475.111755,615.738037 487.974701,624.690613 
	C487.174652,623.686157 486.374603,622.681702 485.118896,621.209656 
M741.532410,435.871063 
	C739.563354,420.034668 737.542725,404.204468 735.648926,388.359070 
	C734.817017,381.398376 733.299011,379.898315 726.672363,380.330872 
	C726.052429,382.945251 726.392151,385.558105 726.710022,388.203369 
	C727.622864,395.797607 728.519653,403.395752 729.263672,411.007935 
	C731.399170,432.856415 733.389771,454.719177 735.561157,476.564026 
	C738.177795,502.887573 740.950745,529.195557 743.588806,555.516968 
	C744.185730,561.472656 741.447083,563.806702 735.566101,562.843994 
	C716.204834,559.674500 696.695435,559.331970 677.300354,561.636658 
	C637.264771,566.393921 601.541077,581.641052 570.536926,607.578064 
	C564.758545,612.412048 559.258911,617.565735 555.107178,624.007324 
	C557.267822,623.021973 559.173340,621.757385 560.978882,620.363098 
	C596.998474,592.547607 638.828247,581.259949 683.270996,578.073303 
	C706.611633,576.399780 729.855042,578.519043 752.785034,583.350708 
	C756.755371,584.187256 757.969910,582.880249 757.564331,579.053711 
	C756.127136,565.490356 755.233093,551.853638 753.323975,538.359192 
	C748.546265,504.587402 746.079224,470.558746 741.532410,435.871063 
M349.499939,659.691406 
	C377.946869,659.691406 406.393799,659.691406 435.095093,659.691406 
	C428.042267,654.494995 421.233856,649.505493 412.808472,647.327881 
	C412.588715,653.408142 408.952393,654.680664 402.609406,650.976929 
	C403.840698,649.691833 406.153961,649.356934 406.239990,647.157471 
	C406.284882,646.008667 405.328583,645.247253 404.285248,645.274109 
	C400.286133,645.377014 397.022308,643.042236 393.322876,642.136963 
	C373.790558,637.357544 353.906036,636.427673 333.919281,636.221558 
	C322.469666,636.103516 312.221893,639.794373 302.618073,645.525635 
	C293.717896,650.836975 287.633026,650.787476 279.624573,644.726196 
	C277.888397,643.412170 276.276489,642.294312 273.747253,642.901062 
	C263.877625,645.268494 253.876556,647.215820 244.499893,651.210205 
	C239.324554,653.414917 233.738770,655.029419 228.600082,659.690796 
	C269.297546,659.690796 308.898712,659.690796 349.499939,659.691406 
M803.095032,654.409180 
	C802.171875,654.027344 801.238159,653.669128 800.327271,653.260010 
	C788.724304,648.048889 776.670410,644.290649 764.096619,642.357666 
	C760.620361,641.823181 756.958313,641.788452 755.020020,645.734436 
	C754.163147,647.479004 753.915527,649.819946 751.050659,649.211365 
	C748.393188,648.646912 745.909119,647.825806 744.720947,645.013367 
	C741.457336,637.288025 740.788635,637.221863 732.468567,639.682800 
	C728.942810,640.725586 724.512146,642.966614 722.017517,637.479553 
	C721.867554,637.149658 720.791504,637.250061 720.149414,637.133179 
	C712.168274,635.680481 704.257751,637.378479 696.302429,638.149231 
	C699.823975,638.149231 703.345520,638.149231 707.268372,638.149231 
	C706.161194,639.370605 704.758850,638.690125 704.347351,639.930603 
	C705.037781,641.864441 708.016846,639.963257 708.688782,642.897766 
	C701.010681,643.117065 693.574951,643.533691 686.157898,642.470947 
	C681.662354,641.826782 677.118591,641.360413 672.768250,642.635132 
	C664.370667,645.095825 656.382690,649.241821 647.225037,648.305481 
	C646.628296,648.244446 645.899231,648.600952 645.363037,648.959656 
	C639.132263,653.127930 631.871643,651.974182 625.100586,652.315002 
	C619.486450,652.597595 614.249451,653.572021 609.080322,655.431885 
	C607.410034,656.032837 605.804565,656.986267 606.117859,659.735596 
	C608.585754,659.735596 610.896851,659.735779 613.207947,659.735535 
	C670.335632,659.729736 727.463318,659.715576 784.591003,659.730713 
	C790.413818,659.732300 796.238403,659.626831 802.041321,660.503052 
	C804.401306,660.859436 807.121033,661.281433 808.410583,658.195618 
	C807.648010,655.891541 805.454651,655.636475 803.095032,654.409180 
M535.773743,699.321594 
	C546.114197,696.105835 553.589050,689.586975 558.584106,680.244751 
	C557.117981,678.219116 555.306458,677.751343 553.629395,677.061279 
	C531.267700,667.860413 508.935516,668.416992 486.601746,677.200439 
	C481.678375,679.136658 481.379730,680.035645 484.882324,684.071777 
	C498.375854,699.620544 514.899902,705.393188 535.773743,699.321594 
z"/>
<path fill="#fffef7" opacity="1.000000" stroke="none" 
	d="
M554.072754,299.437195 
	C553.513245,289.559998 558.989197,284.932953 567.930664,287.441803 
	C575.909607,289.680481 583.885864,291.962555 591.748657,294.571014 
	C598.691772,296.874390 601.562866,301.803406 599.692932,307.231262 
	C597.602966,313.298035 592.000366,316.029724 585.265564,313.983215 
	C577.019775,311.477570 568.832581,308.777252 560.637085,306.108704 
	C557.491699,305.084473 554.990540,303.302673 554.072754,299.437195 
z"/>
<path fill="#fffef7" opacity="1.000000" stroke="none" 
	d="
M451.820740,293.605896 
	C459.725647,291.385437 467.206512,289.095123 474.785004,287.193726 
	C481.574341,285.490265 485.986389,288.014526 487.611206,294.012817 
	C489.186218,299.827240 486.469727,304.256989 479.839539,306.339417 
	C471.901581,308.832581 463.924530,311.202423 455.953552,313.589233 
	C449.068665,315.650787 443.932892,313.295776 441.914642,307.210114 
	C439.961731,301.321320 442.526215,297.013092 449.558258,294.375580 
	C450.181335,294.141846 450.812012,293.928284 451.820740,293.605896 
z"/>
<path fill="#fffef7" opacity="1.000000" stroke="none" 
	d="
M509.716278,293.546112 
	C509.507965,283.076935 514.965210,277.313934 522.906128,279.144623 
	C528.782776,280.499390 532.488647,285.312897 532.363159,291.428345 
	C532.242432,297.313354 528.692322,301.448822 522.913818,302.435760 
	C516.517700,303.528198 512.379395,300.868042 509.716278,293.546112 
z"/>
<path fill="#fffef7" opacity="1.000000" stroke="none" 
	d="
M369.511108,494.102539 
	C362.932220,492.588196 360.514191,489.710632 360.784485,484.223145 
	C361.076935,478.287292 364.222382,474.982056 370.613525,474.595734 
	C415.203705,471.900543 455.161041,483.619385 489.260620,513.166687 
	C492.628448,516.084839 495.959412,519.195435 498.136932,523.221497 
	C500.968445,528.456848 500.077515,534.062134 495.988434,537.179626 
	C491.704712,540.445496 487.141113,540.217590 482.561249,535.864441 
	C462.249359,516.557983 438.066895,504.602325 411.042114,498.130463 
	C397.564819,494.902924 383.783875,494.107330 369.511108,494.102539 
z"/>
<path fill="#fffef7" opacity="1.000000" stroke="none" 
	d="
M383.012024,431.097778 
	C379.523132,431.030365 376.515839,431.113892 373.530151,430.898254 
	C368.288055,430.519531 364.993042,427.437653 364.420807,422.635834 
	C363.753387,417.035431 366.502930,412.350037 371.436859,410.838989 
	C372.700531,410.451996 374.043457,410.165100 375.358429,410.127594 
	C408.221680,409.189331 439.741974,414.208527 468.329285,431.636566 
	C475.004852,435.706329 481.466125,440.186401 486.405396,446.444153 
	C490.708740,451.896149 490.986298,456.310852 487.296844,460.372284 
	C483.663452,464.372009 478.131470,464.678802 472.910217,460.702026 
	C454.679138,446.816132 434.278992,437.914215 411.765839,433.882507 
	C402.433167,432.211182 393.023987,431.014954 383.012024,431.097778 
z"/>
<path fill="#fffef7" opacity="1.000000" stroke="none" 
	d="
M384.059814,374.223755 
	C381.741272,374.204712 379.907562,374.233582 378.078888,374.151184 
	C373.070740,373.925537 369.946808,371.140350 369.706451,366.748383 
	C369.454224,362.139801 372.948090,357.906067 377.883911,357.802002 
	C390.515167,357.535767 403.194336,357.007263 415.680573,359.677765 
	C430.928589,362.938934 445.464142,368.020386 458.550934,376.745087 
	C461.525818,378.728394 464.152649,380.968231 465.234558,384.523071 
	C466.171265,387.600952 465.924133,390.444092 463.326050,392.738708 
	C460.734039,395.027985 458.060364,394.405121 455.488708,392.852234 
	C442.829437,385.207916 429.242493,380.002136 414.792755,376.890839 
	C404.804077,374.740082 394.722107,374.052582 384.059814,374.223755 
z"/>
<path fill="#fffef7" opacity="1.000000" stroke="none" 
	d="
M605.660461,505.734375 
	C589.753601,512.295776 576.106445,521.717896 563.296631,532.464050 
	C561.513000,533.960327 559.827026,535.591919 557.938782,536.940979 
	C553.569946,540.062256 548.870422,540.047363 545.541077,537.072205 
	C542.355347,534.225342 541.149597,528.242676 543.162231,524.208130 
	C546.057312,518.404480 550.913452,514.256470 555.698242,510.131653 
	C575.768555,492.829681 599.636841,483.570709 625.062927,477.728821 
	C639.570496,474.395569 654.338135,473.681000 669.158264,473.952484 
	C675.968567,474.077209 678.955811,476.371246 680.286926,481.807770 
	C682.057556,489.039307 678.355347,494.125031 670.901917,494.185822 
	C660.082458,494.274048 649.272766,494.288208 638.592041,496.327087 
	C627.460999,498.451965 616.544250,501.344238 605.660461,505.734375 
z"/>
<path fill="#fffef7" opacity="1.000000" stroke="none" 
	d="
M560.433960,463.646851 
	C551.217773,461.078247 549.123962,452.177277 556.073853,445.404572 
	C565.482178,436.236145 576.593445,429.508514 588.536255,424.165710 
	C612.853333,413.287170 638.549683,409.567413 664.952332,409.824249 
	C673.536865,409.907776 678.671021,415.826477 677.011353,423.223999 
	C675.832031,428.480316 672.538452,431.090393 666.450317,431.080109 
	C650.580750,431.053345 634.880432,432.153748 619.431335,436.212952 
	C602.616455,440.630981 587.346619,448.112732 573.262695,458.190033 
	C569.505859,460.878113 566.027405,464.269043 560.433960,463.646851 
z"/>
<path fill="#fffef7" opacity="1.000000" stroke="none" 
	d="
M658.596313,373.829834 
	C635.077393,373.654327 613.321167,378.955200 592.774292,389.337891 
	C590.401001,390.537140 588.117310,391.912659 585.770935,393.166779 
	C583.419495,394.423584 581.026123,394.900726 578.809998,392.939423 
	C576.675720,391.050568 575.703674,388.638550 576.183960,385.783661 
	C576.847229,381.841675 579.523926,379.376221 582.669922,377.339966 
	C598.443054,367.130646 615.871582,361.511505 634.323914,358.695038 
	C643.753235,357.255737 653.239258,357.679901 662.708313,357.698059 
	C668.696960,357.709534 672.294006,362.164520 671.183594,367.892853 
	C670.585388,370.979065 668.772400,372.963409 665.524719,373.307739 
	C663.375916,373.535614 661.213562,373.636139 658.596313,373.829834 
z"/>
<path fill="#fffef7" opacity="1.000000" stroke="none" 
	d="
M267.407593,468.195923 
	C268.961761,466.915741 269.918793,467.276703 270.018097,468.873749 
	C270.314178,473.636963 269.956360,478.325287 267.509735,482.743652 
	C265.794403,478.008850 265.107758,473.284119 267.407593,468.195923 
z"/>
<path fill="#fffef7" opacity="1.000000" stroke="none" 
	d="
M260.131592,520.895813 
	C260.339691,519.292725 260.351044,517.913391 262.292511,517.239014 
	C263.340271,519.629639 263.311523,521.709778 261.457672,523.641113 
	C259.837830,523.288940 260.273926,522.113953 260.131592,520.895813 
z"/>
<path fill="#fffef7" opacity="1.000000" stroke="none" 
	d="
M790.230835,580.346741 
	C789.485352,582.061707 788.561157,582.456726 787.876526,580.768188 
	C786.963440,578.516113 786.304138,576.154358 787.585327,573.303284 
	C789.721680,575.275269 789.975403,577.669250 790.230835,580.346741 
z"/>
<path fill="#fffef7" opacity="1.000000" stroke="none" 
	d="
M768.597046,446.529205 
	C769.600159,449.207092 770.348938,451.628693 769.427795,455.384003 
	C767.791687,451.694397 766.814148,449.060913 767.327515,446.068115 
	C767.346741,445.956085 767.595154,445.771149 767.662170,445.799042 
	C767.944946,445.916809 768.199402,446.102448 768.597046,446.529205 
z"/>
</svg>